HIERARCHY
ROOT Hips
{
	OFFSET 0.000000 8.830580 0.000000
	CHANNELS 6 Xposition Yposition Zposition Zrotation Yrotation Xrotation 
	JOINT Spine
	{
		OFFSET 0.000000 0.010000 0.000000
		CHANNELS 3 Zrotation Yrotation Xrotation
		JOINT Spine1
		{
			OFFSET 0.000000 2.459130 0.000000
			CHANNELS 3 Zrotation Yrotation Xrotation
			JOINT Neck
			{
				OFFSET 0.000000 2.484630 0.000000
				CHANNELS 3 Zrotation Yrotation Xrotation
				JOINT Head_virtual
				{
					OFFSET 0.000000 0.000000 0.000000
					CHANNELS 3 Zrotation Yrotation Xrotation
					JOINT Head
					{
						OFFSET 0.000000 0.927525 0.000000
						CHANNELS 3 Zrotation Yrotation Xrotation
						End Site
						{
							OFFSET 0.000000 0.000000 0.000000
						}
					}
				}
				JOINT LeftUpArm_virtual
				{
					OFFSET 0.000000 0.000000 0.000000
					CHANNELS 3 Zrotation Yrotation Xrotation
					JOINT LeftUpArm
					{
						OFFSET 1.248820 0.000000 0.000000
						CHANNELS 3 Zrotation Yrotation Xrotation
						JOINT LeftForeArm
						{
							OFFSET 2.597580 0.000000 0.000000
							CHANNELS 3 Zrotation Yrotation Xrotation
							JOINT LeftHand
							{
								OFFSET 2.455420 0.000000 0.000000
								CHANNELS 3 Zrotation Yrotation Xrotation
								End Site
								{
									OFFSET 0.000000 0.000000 0.000000
								}
							}
						}
					}
				}
				JOINT RightUpArm_virtual
				{
					OFFSET -0.000000 -0.000000 -0.000000
					CHANNELS 3 Zrotation Yrotation Xrotation
					JOINT RightUpArm
					{
						OFFSET -1.248820 -0.000000 -0.000000
						CHANNELS 3 Zrotation Yrotation Xrotation
						JOINT RightForeArm
						{
							OFFSET -2.597580 -0.000000 -0.000000
							CHANNELS 3 Zrotation Yrotation Xrotation
							JOINT RightHand
							{
								OFFSET -2.455420 -0.000000 -0.000000
								CHANNELS 3 Zrotation Yrotation Xrotation
								End Site
								{
									OFFSET 0.000000 0.000000 0.000000
								}
							}
						}
					}
				}
			}
		}
	}
	JOINT LeftUpLeg
	{
		OFFSET 1.271939 0.000000 0.000000
		CHANNELS 3 Zrotation Yrotation Xrotation
		JOINT LeftLowLeg
		{
			OFFSET 0.000000 -4.342910 0.000000
			CHANNELS 3 Zrotation Yrotation Xrotation
			JOINT LeftFoot
			{
				OFFSET 0.000000 -4.487670 0.000000
				CHANNELS 3 Zrotation Yrotation Xrotation
				JOINT LeftToeBase
				{
					OFFSET 0.000000 0.000000 1.515070
					CHANNELS 3 Zrotation Yrotation Xrotation
					End Site
					{
						OFFSET 0.000000 0.000000 0.000000
					}
				}
			}
		}
	}
	JOINT RightUpLeg
	{
		OFFSET -1.271939 0.000000 0.000000
		CHANNELS 3 Zrotation Yrotation Xrotation
		JOINT RightLowLeg
		{
			OFFSET 0.000000 -4.342910 0.000000
			CHANNELS 3 Zrotation Yrotation Xrotation
			JOINT RightFoot
			{
				OFFSET 0.000000 -4.487670 0.000000
				CHANNELS 3 Zrotation Yrotation Xrotation
				JOINT RightToeBase
				{
					OFFSET 0.000000 0.000000 1.515070
					CHANNELS 3 Zrotation Yrotation Xrotation
					End Site
					{
						OFFSET 0.000000 0.000000 0.000000
					}
				}
			}
		}
	}
}
MOTION
Frames: 5
Frame Time: 0.041667
-16.753264 0.523353 42.709065 -176.567831 -2.255759 104.546907 -2.673033 -13.523846 -3.894885 -2.380753 15.889797 28.881569 0.000000 0.000000 0.000000 13.472310 -6.440265 45.480686 1.067031 -2.837655 -101.190775 1.482530 2.705540 19.882996 -76.227699 28.466700 -1.335190 180.000000 -43.684006 -180.000000 47.798199 23.316900 13.752000 7.347140 -16.974800 9.921021 59.838299 -31.200100 3.055200 -180.000000 39.671005 180.000000 -4.744630 -3.910830 -41.664902 -3.325752 -18.876878 -18.109666 0.000000 0.000000 12.014900 -22.827842 10.690941 32.098222 0.000000 0.000000 -26.431200 27.104385 -5.062885 -42.755640 0.000000 0.000000 65.504997 31.024770 -16.149157 27.522905 0.000000 0.000000 -23.509260 
-16.751739 0.522950 42.711191 -176.668551 -2.170826 104.575855 -2.755193 -13.524310 -3.890705 -2.384613 15.896209 28.764387 0.000000 0.000000 0.000000 13.173459 -5.909228 45.194957 1.384290 -3.087621 -101.400426 1.469810 2.707810 20.015991 -76.445099 28.501200 -1.695980 180.000000 -43.615997 -180.000000 47.783901 23.479500 13.601500 7.418830 -16.829000 9.786011 59.603298 -31.217199 3.300220 180.000000 39.595001 -180.000000 -3.874990 -4.013160 -41.685699 -3.200387 -19.042491 -18.144561 0.000000 0.000000 12.020600 -22.811479 10.754790 31.923806 0.000000 0.000000 -26.337300 27.214912 -5.454463 -42.717785 0.000000 0.000000 65.458801 30.989410 -16.153279 27.323247 0.000000 0.000000 -23.466890 
-16.748331 0.522091 42.712933 -176.708572 -2.100869 104.405462 -2.886206 -13.535225 -3.662268 -2.396430 15.905187 28.595671 0.000000 0.000000 0.000000 13.045283 -6.138609 44.701838 1.169107 -3.309999 -101.180719 1.510390 2.614090 20.234985 -76.727699 28.462799 -2.031800 -180.000000 -43.613998 180.000000 47.955399 23.694799 13.601500 7.458970 -16.641701 9.731018 59.508701 -31.253599 3.512170 180.000000 39.697998 180.000000 -3.381680 -3.720030 -41.548401 -3.137870 -19.202953 -17.993360 0.000000 0.000000 12.040800 -22.814139 10.817482 31.826390 0.000000 0.000000 -26.655800 27.321857 -5.918369 -42.535266 0.000000 0.000000 65.433800 31.065112 -16.181818 27.043413 0.000000 0.000000 -23.300360 
-16.745766 0.523465 42.714399 -176.818585 -2.024860 104.395296 -2.904964 -13.489125 -3.674868 -2.428895 15.934412 28.547849 0.000000 0.000000 0.000000 12.900336 -6.195660 44.297443 1.070370 -3.508421 -101.078667 1.530040 2.569460 20.282013 -76.868797 28.499599 -2.196760 -180.000000 -43.636993 -180.000000 48.011600 24.205500 13.008900 7.491030 -16.529699 9.726013 59.471100 -31.198500 3.660230 180.000000 39.785995 180.000000 -2.929630 -3.528520 -41.613701 -3.037220 -19.398382 -17.963781 0.000000 0.000000 12.022900 -22.631629 10.883201 31.700210 0.000000 0.000000 -26.380100 27.437281 -6.228160 -42.478787 0.000000 0.000000 65.448502 30.992916 -16.173883 26.733820 0.000000 0.000000 -23.214190 
-16.767937 0.491816 42.728342 -177.717585 -1.313610 107.947947 -1.079678 -12.607427 -6.627295 -3.427920 15.884422 27.734675 0.000000 0.000000 0.000000 12.775267 -6.082741 44.145811 0.970656 -3.632345 -101.305441 1.451400 2.631790 20.128998 -76.861298 28.558399 -2.329800 -180.000000 -43.705994 180.000000 48.143002 24.627899 12.791900 7.796070 -16.292500 9.447998 59.281898 -31.215900 3.830380 -180.000000 39.880997 180.000000 -2.842290 -3.376270 -41.339699 -1.342643 -19.240411 -22.020273 0.000000 0.000000 12.369600 -22.665293 11.443461 31.399487 0.000000 0.000000 -26.399300 27.971011 -4.198147 -45.599266 0.000000 0.000000 65.289200 30.321650 -16.136318 27.854566 0.000000 0.000000 -23.803020 
